<?xml version="1.0" encoding="UTF-8"?>
<svg version="1.1" xmlns="http://www.w3.org/2000/svg" width="100" height="100">
<path d="M0 0 C0.495 1.485 0.495 1.485 1 3 C2.65 3.33 4.3 3.66 6 4 C5.01 4.66 4.02 5.32 3 6 C3.495 6.845625 3.99 7.69125 4.5 8.5625 C6.14747708 12.33796832 6.24430947 14.92817548 6 19 C6.556875 19.04125 7.11375 19.0825 7.6875 19.125 C11.67030477 20.63200721 14.12992356 24.25984712 16 28 C16.03090435 31.31559516 15.93242185 34.61929772 15.83984375 37.93359375 C15.74746742 41.17429361 15.74746742 41.17429361 18 44 C18.67608665 48.63826887 18.58601439 52.72142314 16.625 57 C13.29621913 59.53621399 10.5219141 59.79229557 6.4453125 60.3984375 C3.67070998 60.88233421 3.67070998 60.88233421 1 63.625 C-2.76595058 66.60637754 -4.97556312 66.49441655 -9.6328125 66.37109375 C-12.10695402 65.98323328 -13.83879445 65.23995434 -16 64 C-16.928125 64.804375 -17.85625 65.60875 -18.8125 66.4375 C-24.3611136 71.24629845 -31.00968818 70.44931547 -38 70 C-43.32727106 68.42154932 -45.88605848 65.02663153 -49.3203125 60.875 C-51.29185432 58.67420913 -53.34636767 57.28660962 -56 56 C-54.02 55.505 -54.02 55.505 -52 55 C-52 53.02 -52 51.04 -52 49 C-53.3303125 49.1546875 -53.3303125 49.1546875 -54.6875 49.3125 C-59.02481732 48.90331912 -60.23526717 47.23868703 -63 44 C-63.33 43.67 -63.66 43.34 -64 43 C-64.4439141 38.39012284 -64.55777742 34.27491981 -62.6875 30 C-61 28 -61 28 -58 26 C-57.01 26 -56.02 26 -55 26 C-54.9071875 24.6696875 -54.9071875 24.6696875 -54.8125 23.3125 C-53.54559817 18.1474387 -50.30058803 15.86705868 -46 13 C-39.84 11.096 -39.84 11.096 -36.8125 10.75 C-33.81763313 9.51074474 -32.72152055 6.66053176 -31 4 C-22.32857632 -3.80428131 -10.77694366 -4.01493979 0 0 Z " fill="#C4E7E1" transform="translate(73,16)"/>
<path d="M0 0 C1.08946678 -0.0049926 1.08946678 -0.0049926 2.20094299 -0.01008606 C3.74015671 -0.015158 5.27938145 -0.0174943 6.81860352 -0.01733398 C9.17808096 -0.01951891 11.53708986 -0.0376669 13.89648438 -0.05664062 C15.38932131 -0.05957477 16.88216048 -0.06155942 18.375 -0.0625 C19.43756264 -0.07327827 19.43756264 -0.07327827 20.52159119 -0.08427429 C25.52508288 -0.06085462 25.52508288 -0.06085462 27.75390625 2.16796875 C28.00390625 5.66796875 28.00390625 5.66796875 27.75390625 9.16796875 C25.75390625 11.16796875 25.75390625 11.16796875 23.37109375 11.36328125 C22.46617188 11.34007812 21.56125 11.316875 20.62890625 11.29296875 C18.21578125 11.23109375 18.21578125 11.23109375 15.75390625 11.16796875 C16.24890625 19.08796875 16.24890625 19.08796875 16.75390625 27.16796875 C18.07390625 27.16796875 19.39390625 27.16796875 20.75390625 27.16796875 C21.08390625 26.17796875 21.41390625 25.18796875 21.75390625 24.16796875 C22.08390625 24.82796875 22.41390625 25.48796875 22.75390625 26.16796875 C22.42390625 27.15796875 22.09390625 28.14796875 21.75390625 29.16796875 C19.77390625 29.16796875 17.79390625 29.16796875 15.75390625 29.16796875 C15.75390625 32.46796875 15.75390625 35.76796875 15.75390625 39.16796875 C20.37390625 39.16796875 24.99390625 39.16796875 29.75390625 39.16796875 C29.75390625 39.49796875 29.75390625 39.82796875 29.75390625 40.16796875 C25.13390625 40.16796875 20.51390625 40.16796875 15.75390625 40.16796875 C15.75390625 42.47796875 15.75390625 44.78796875 15.75390625 47.16796875 C12.28391896 49.48129361 10.82881377 49.50754438 6.75390625 49.16796875 C5.76390625 48.50796875 4.77390625 47.84796875 3.75390625 47.16796875 C3.48714465 44.4016796 3.40586436 41.86177244 3.4609375 39.09765625 C3.46518234 38.30142853 3.46942719 37.50520081 3.47380066 36.68484497 C3.49061791 34.13721146 3.52827446 31.59036386 3.56640625 29.04296875 C3.5814492 27.31771974 3.59513829 25.59245836 3.60742188 23.8671875 C3.64053124 19.63381093 3.6923334 15.40102316 3.75390625 11.16796875 C3.05523437 11.19117188 2.3565625 11.214375 1.63671875 11.23828125 C0.72664063 11.25632812 -0.1834375 11.274375 -1.12109375 11.29296875 C-2.02601562 11.31617188 -2.9309375 11.339375 -3.86328125 11.36328125 C-6.24609375 11.16796875 -6.24609375 11.16796875 -8.24609375 9.16796875 C-8.57361609 6.45341919 -8.37693625 3.91566116 -8.24609375 1.16796875 C-6.30565633 -0.77246867 -2.6473564 0.00414702 0 0 Z " fill="#2F79C4" transform="translate(41.24609375,26.83203125)"/>
<path d="M0 0 C0.66 0.99 1.32 1.98 2 3 C3.65 2.67 5.3 2.34 7 2 C7.38218767 3.65614657 7.71395102 5.32457024 8 7 C7.67 7.33 7.34 7.66 7 8 C8.65 8 10.3 8 12 8 C12.625 10.375 12.625 10.375 13 13 C9.68583447 16.31416553 5.53513193 15.87636567 1 16 C-4.01395215 15.79414859 -9.00010615 15.43332413 -14 15 C-14 11.7 -14 8.4 -14 5 C-10 4 -10 4 -8 5 C-7.814375 3.7934375 -7.814375 3.7934375 -7.625 2.5625 C-7.41875 1.716875 -7.2125 0.87125 -7 0 C-4.27584084 -1.36207958 -2.87220643 -0.86166193 0 0 Z " fill="#FAF9EC" transform="translate(71,51)"/>
<path d="M0 0 C1.08946678 -0.0049926 1.08946678 -0.0049926 2.20094299 -0.01008606 C3.74015671 -0.015158 5.27938145 -0.0174943 6.81860352 -0.01733398 C9.17808096 -0.01951891 11.53708986 -0.0376669 13.89648438 -0.05664062 C15.38932131 -0.05957477 16.88216048 -0.06155942 18.375 -0.0625 C19.43756264 -0.07327827 19.43756264 -0.07327827 20.52159119 -0.08427429 C25.52508288 -0.06085462 25.52508288 -0.06085462 27.75390625 2.16796875 C28.00390625 5.66796875 28.00390625 5.66796875 27.75390625 9.16796875 C25.75390625 11.16796875 25.75390625 11.16796875 23.37109375 11.36328125 C22.46617188 11.34007812 21.56125 11.316875 20.62890625 11.29296875 C18.21578125 11.23109375 18.21578125 11.23109375 15.75390625 11.16796875 C16.24890625 19.08796875 16.24890625 19.08796875 16.75390625 27.16796875 C18.07390625 27.16796875 19.39390625 27.16796875 20.75390625 27.16796875 C21.08390625 26.17796875 21.41390625 25.18796875 21.75390625 24.16796875 C22.08390625 24.82796875 22.41390625 25.48796875 22.75390625 26.16796875 C22.42390625 27.15796875 22.09390625 28.14796875 21.75390625 29.16796875 C19.77390625 29.16796875 17.79390625 29.16796875 15.75390625 29.16796875 C15.75390625 32.46796875 15.75390625 35.76796875 15.75390625 39.16796875 C20.37390625 39.16796875 24.99390625 39.16796875 29.75390625 39.16796875 C29.75390625 39.49796875 29.75390625 39.82796875 29.75390625 40.16796875 C25.13390625 40.16796875 20.51390625 40.16796875 15.75390625 40.16796875 C15.75390625 42.47796875 15.75390625 44.78796875 15.75390625 47.16796875 C12.28391896 49.48129361 10.82881377 49.50754438 6.75390625 49.16796875 C5.76390625 48.50796875 4.77390625 47.84796875 3.75390625 47.16796875 C3.48714465 44.4016796 3.40586436 41.86177244 3.4609375 39.09765625 C3.46518234 38.30142853 3.46942719 37.50520081 3.47380066 36.68484497 C3.49061791 34.13721146 3.52827446 31.59036386 3.56640625 29.04296875 C3.5814492 27.31771974 3.59513829 25.59245836 3.60742188 23.8671875 C3.64053124 19.63381093 3.6923334 15.40102316 3.75390625 11.16796875 C3.05523437 11.19117188 2.3565625 11.214375 1.63671875 11.23828125 C0.72664063 11.25632812 -0.1834375 11.274375 -1.12109375 11.29296875 C-2.02601562 11.31617188 -2.9309375 11.339375 -3.86328125 11.36328125 C-6.24609375 11.16796875 -6.24609375 11.16796875 -8.24609375 9.16796875 C-8.57361609 6.45341919 -8.37693625 3.91566116 -8.24609375 1.16796875 C-6.30565633 -0.77246867 -2.6473564 0.00414702 0 0 Z M-7.24609375 3.16796875 C-7.41276042 5.66796875 -7.41276042 5.66796875 -7.24609375 8.16796875 C-6.18630442 9.45409551 -6.18630442 9.45409551 -3.7421875 9.265625 C-2.73285156 9.25402344 -1.72351562 9.24242187 -0.68359375 9.23046875 C0.32832031 9.22144531 1.34023438 9.21242188 2.3828125 9.203125 C3.16527344 9.19152344 3.94773437 9.17992187 4.75390625 9.16796875 C4.74866943 10.28357178 4.74343262 11.3991748 4.73803711 12.54858398 C4.7199885 16.67276208 4.70847476 20.79693666 4.69897461 24.92114258 C4.69393407 26.70890896 4.68710171 28.4966712 4.6784668 30.28442383 C4.66638895 32.84848043 4.66067531 35.41248272 4.65625 37.9765625 C4.65108871 38.78073105 4.64592743 39.5848996 4.64060974 40.41343689 C4.6404141 42.3319859 4.69188642 44.25042243 4.75390625 46.16796875 C5.9310961 47.57229811 5.9310961 47.57229811 9.25390625 47.29296875 C12.5767164 47.57229811 12.5767164 47.57229811 13.75390625 46.16796875 C13.91394113 43.5037019 14.01333514 40.86236447 14.0703125 38.1953125 C14.0910936 37.39766983 14.11187469 36.60002716 14.13328552 35.7782135 C14.19886783 33.22072264 14.25770592 30.66312595 14.31640625 28.10546875 C14.35958324 26.37563993 14.40319726 24.64582196 14.44726562 22.91601562 C14.55455797 18.66677615 14.65580051 14.41742985 14.75390625 10.16796875 C15.53636719 10.10738281 16.31882812 10.04679687 17.125 9.984375 C18.13691406 9.90058594 19.14882813 9.81679688 20.19140625 9.73046875 C21.20074219 9.64925781 22.21007812 9.56804688 23.25 9.484375 C25.69031404 9.43585407 25.69031404 9.43585407 26.75390625 8.16796875 C26.92057292 5.66796875 26.92057292 5.66796875 26.75390625 3.16796875 C25.07716976 1.49123226 23.02535549 2.04009058 20.78735352 2.02902222 C19.74985962 2.03205856 19.74985962 2.03205856 18.69140625 2.03515625 C17.98491943 2.03419952 17.27843262 2.0332428 16.55053711 2.03225708 C15.05419832 2.03157542 13.55785658 2.0334287 12.06152344 2.03759766 C9.76360468 2.04294618 7.46588139 2.03765224 5.16796875 2.03125 C3.71744748 2.03191078 2.26692634 2.03319195 0.81640625 2.03515625 C0.12474365 2.03313202 -0.56691895 2.03110779 -1.27954102 2.02902222 C-4.54345013 1.76566142 -4.54345013 1.76566142 -7.24609375 3.16796875 Z " fill="#524345" transform="translate(41.24609375,26.83203125)"/>
<path d="M0 0 C2.38564077 0.57584432 4.66682784 1.22227595 7 2 C7.99 2 8.98 2 10 2 C10.33 2.99 10.66 3.98 11 5 C10.67 5.66 10.34 6.32 10 7 C11.32 7.33 12.64 7.66 14 8 C13.31640625 9.94921875 13.31640625 9.94921875 12 12 C5.67195557 13.78483304 -4.04347248 13.97826376 -10 11 C-9.62005832 8.24542282 -9.1926367 7.17979426 -7.125 5.25 C-5 4 -5 4 -2 4 C-1.34 2.68 -0.68 1.36 0 0 Z " fill="#F9F8EB" transform="translate(26,41)"/>
<path d="M0 0 C1.98 0 3.96 0 6 0 C6.33 0.66 6.66 1.32 7 2 C9.02463255 2.65213292 9.02463255 2.65213292 11 3 C11 3.66 11 4.32 11 5 C9.86111328 4.98259766 9.86111328 4.98259766 8.69921875 4.96484375 C7.70535156 4.95582031 6.71148437 4.94679688 5.6875 4.9375 C4.70136719 4.92589844 3.71523438 4.91429688 2.69921875 4.90234375 C-0.09963849 4.87670138 -0.09963849 4.87670138 -3 6 C-5.6875 4.625 -5.6875 4.625 -8 3 C-8 2.67 -8 2.34 -8 2 C-5.36 1.67 -2.72 1.34 0 1 C0 0.67 0 0.34 0 0 Z " fill="#ECF9F6" transform="translate(25,69)"/>
<path d="M0 0 C0.33 0 0.66 0 1 0 C1.21677407 5.2321895 1.41368737 10.46460187 1.59204102 15.69824219 C1.65555993 17.47937098 1.7245502 19.26031326 1.79907227 21.04101562 C1.90511241 23.59736595 1.99160304 26.15373651 2.07421875 28.7109375 C2.11157639 29.50994476 2.14893402 30.30895203 2.18742371 31.13217163 C2.2487793 33.37646484 2.2487793 33.37646484 2 37 C-1.45245824 39.30163882 -2.94738713 39.34490322 -7 39 C-7.66 38.34 -8.32 37.68 -9 37 C-6.36 36.67 -3.72 36.34 -1 36 C-0.67 24.12 -0.34 12.24 0 0 Z " fill="#475D7C" transform="translate(55,37)"/>
<path d="M0 0 C0.33 0.99 0.66 1.98 1 3 C1.99 3.33 2.98 3.66 4 4 C3.01 4 2.02 4 1 4 C1 4.66 1 5.32 1 6 C-1.64738916 7.4606285 -2.89448334 8 -6 8 C-6 6.35 -6 4.7 -6 3 C-2.25 1.875 -2.25 1.875 0 3 C0 2.01 0 1.02 0 0 Z " fill="#D8D1C7" transform="translate(63,53)"/>
<path d="M0 0 C2.5625 2.1875 2.5625 2.1875 5 5 C4.80952381 9.19047619 4.80952381 9.19047619 3 11 C1.00041636 11.04080783 -1.00045254 11.04254356 -3 11 C-3 10.67 -3 10.34 -3 10 C-1.02 9.34 0.96 8.68 3 8 C3 7.34 3 6.68 3 6 C1.68 6 0.36 6 -1 6 C-0.67 4.02 -0.34 2.04 0 0 Z " fill="#7B6A65" transform="translate(36,43)"/>
<path d="M0 0 C0.66 0 1.32 0 2 0 C2.433125 0.9590625 2.433125 0.9590625 2.875 1.9375 C3.82823451 4.15206079 3.82823451 4.15206079 6 5 C5.67 5.66 5.34 6.32 5 7 C3.02 7 1.04 7 -1 7 C-1 6.34 -1 5.68 -1 5 C-0.34 5 0.32 5 1 5 C0.67 3.35 0.34 1.7 0 0 Z " fill="#948881" transform="translate(78,53)"/>
</svg>
